<svg xmlns="http://www.w3.org/2000/svg" width="1500" height="900" viewBox="0 0 1500 900">
  <defs>
    <linearGradient id="sky" x1="0" y1="0" x2="1" y2="1">
      <stop offset="0" stop-color="#a9d8f5"/>
      <stop offset="0.5" stop-color="#d4e7f5"/>
      <stop offset="1" stop-color="#9fc9ec"/>
    </linearGradient>
  </defs>
  <rect width="1500" height="900" fill="url(#sky)"/>
  <polygon points="33,1078 18,573 -83,586" fill="#ffffff" fill-opacity="0.20"/>
  <polygon points="660,1057 406,263 251,331" fill="#ffffff" fill-opacity="0.22"/>
  <polygon points="1315,484 1231,-81 1040,-16" fill="#ffffff" fill-opacity="0.09"/>
  <polygon points="687,91 1287,830 1442,672" fill="#ffffff" fill-opacity="0.19"/>
  <polygon points="1065,817 1750,497 1658,348" fill="#ffffff" fill-opacity="0.28"/>
  <polygon points="304,-61 761,701 865,628" fill="#ffffff" fill-opacity="0.15"/>
  <polygon points="705,739 666,-220 496,-197" fill="#ffffff" fill-opacity="0.27"/>
  <polygon points="393,82 -255,339 -179,481" fill="#ffffff" fill-opacity="0.12"/>
  <polygon points="1506,288 1276,-222 1166,-156" fill="#ffffff" fill-opacity="0.28"/>
  <polygon points="965,-71 536,330 624,407" fill="#ffffff" fill-opacity="0.17"/>
  <polygon points="195,681 832,321 773,232" fill="#ffffff" fill-opacity="0.18"/>
  <polygon points="1666,583 925,478 920,642" fill="#ffffff" fill-opacity="0.23"/>
  <polygon points="1749,564 1098,103 1041,198" fill="#ffffff" fill-opacity="0.16"/>
  <polygon points="168,77 748,718 900,537" fill="#ffffff" fill-opacity="0.26"/>
  <polygon points="-87,371 321,399 319,323" fill="#ffffff" fill-opacity="0.13"/>
  <polygon points="748,-106 1081,424 1217,308" fill="#ffffff" fill-opacity="0.28"/>
  <polygon points="1295,1260 1479,351 1238,334" fill="#ffffff" fill-opacity="0.14"/>
  <polygon points="147,342 -95,83 -136,128" fill="#ffffff" fill-opacity="0.13"/>
  <polygon points="823,704 1436,216 1364,137" fill="#ffffff" fill-opacity="0.13"/>
  <polygon points="370,801 751,887 754,730" fill="#ffffff" fill-opacity="0.28"/>
  <polygon points="896,684 904,1021 1126,930" fill="#ffffff" fill-opacity="0.29"/>
  <polygon points="786,376 859,860 961,833" fill="#ffffff" fill-opacity="0.20"/>
</svg>
